<?xml version="1.0" encoding="iso-8859-1"?>
<!-- Generator: Adobe Illustrator 19.0.0, SVG Export Plug-In . SVG Version: 6.00 Build 0)  -->
<svg version="1.1" id="Capa_1" xmlns="http://www.w3.org/2000/svg" xmlns:xlink="http://www.w3.org/1999/xlink" x="0px" y="0px"
	 viewBox="0 0 480 480" style="enable-background:new 0 0 480 480;" xml:space="preserve">
<path style="fill:#4398D1;" d="M352,120H64c-22.091,0-40,17.909-40,40s17.909,40,40,40h360v-80H352z"/>
<path style="fill:#FDB62F;" d="M248,10.328C178.594-2.887,111.617,42.665,98.402,112.07s32.337,136.383,101.742,149.598
	c69.406,13.215,136.383-32.337,149.598-101.742C351.244,152.039,352,144.029,352,136C351.862,74.624,308.267,21.945,248,10.328z"/>
<circle style="fill:#FFA12E;" cx="224" cy="136" r="96"/>
<g>
	<path style="fill:#F46B27;" d="M224,32c-57.41,0.066-103.934,46.59-104,104h16c0.057-48.577,39.423-87.943,88-88V32z"/>
	<path style="fill:#F46B27;" d="M312,136c-0.057,48.577-39.423,87.943-88,88v16c57.41-0.066,103.934-46.59,104-104H312z"/>
</g>
<path style="fill:#75462E;" d="M424,200H64c-22.091,0-40-17.909-40-40v272c0,22.091,17.909,40,40,40h360V200z"/>
<path style="fill:#4398D1;" d="M424,296v-64c17.673,0,32,14.327,32,32S441.673,296,424,296z"/>
<path style="fill:#875339;" d="M424,296h-69.984c-26.448-0.412-48.513,20.111-50.016,46.52c-0.817,26.497,20,48.64,46.497,49.457
	c0.501,0.015,1.002,0.023,1.503,0.023h72c17.673,0,32-14.327,32-32v-96C456,281.673,441.673,296,424,296z"/>
<g>
	<path style="fill:#3E8CC7;" d="M144,276.688l-21.656,21.656c-1.5,1.5-2.344,3.534-2.344,5.656v33.472
		c-12.497,4.418-19.046,18.131-14.627,30.627c4.418,12.497,18.131,19.046,30.627,14.627c12.497-4.418,19.046-18.131,14.627-30.627
		c-2.416-6.835-7.793-12.211-14.627-14.627v-30.16l21.656-21.656c1.5-1.5,2.344-3.534,2.344-5.656v-80h-16V276.688z M128,368
		c-4.418,0-8-3.582-8-8s3.582-8,8-8s8,3.582,8,8S132.418,368,128,368z"/>
	<path style="fill:#3E8CC7;" d="M88,281.472V276l28.8-21.6c2.014-1.511,3.2-3.882,3.2-6.4v-48h-16v44l-28.8,21.6
		c-2.014,1.511-3.2,3.882-3.2,6.4v9.472c-12.497,4.418-19.046,18.131-14.627,30.627c4.418,12.497,18.131,19.046,30.627,14.627
		c12.497-4.418,19.046-18.131,14.627-30.627C100.211,289.265,94.835,283.888,88,281.472z M80,312c-4.418,0-8-3.582-8-8s3.582-8,8-8
		c4.418,0,8,3.582,8,8S84.418,312,80,312z"/>
	<path style="fill:#3E8CC7;" d="M272,393.472V328c0-2.122-0.844-4.156-2.344-5.656L248,300.688V200h-16v104
		c0,2.122,0.844,4.156,2.344,5.656L256,331.312v62.16c-12.497,4.418-19.046,18.131-14.627,30.627
		c4.418,12.497,18.131,19.046,30.627,14.627c12.497-4.418,19.046-18.131,14.627-30.627C284.211,401.265,278.835,395.888,272,393.472
		L272,393.472z M264,424c-4.418,0-8-3.582-8-8s3.582-8,8-8s8,3.582,8,8S268.418,424,264,424z"/>
	<path style="fill:#3E8CC7;" d="M192,316.688l-13.656,13.656c-1.5,1.5-2.344,3.534-2.344,5.656v64h16v-60.688l13.656-13.656
		c1.5-1.5,2.344-3.534,2.344-5.656V200h-16V316.688z"/>
	<path style="fill:#3E8CC7;" d="M288,200h16v56h-16V200z"/>
	<path style="fill:#3E8CC7;" d="M364.44,249.344L344,235.72V200h-16v40c0,2.674,1.335,5.172,3.56,6.656L352,260.28V272h16v-16
		C368,253.326,366.665,250.828,364.44,249.344z"/>
	<path style="fill:#3E8CC7;" d="M288,272h16v16h-16V272z"/>
</g>
<g>
	<path style="fill:#FDB62F;" d="M64,80c0-22.091,17.909-40,40-40C81.909,40,64,22.091,64,0"/>
	<path style="fill:#FDB62F;" d="M64,0c0,22.091-17.909,40-40,40c22.091,0,40,17.909,40,40"/>
</g>
<circle style="fill:#DBDBDB;" cx="352" cy="344" r="16"/>
<path d="M352,320c-13.255,0-24,10.745-24,24s10.745,24,24,24s24-10.745,24-24S365.255,320,352,320z M352,352c-4.418,0-8-3.582-8-8
	s3.582-8,8-8s8,3.582,8,8S356.418,352,352,352z"/>
<path d="M432,224.8V120c0-4.418-3.582-8-8-8h-66.4C344.428,38.215,273.936-10.922,200.151,2.249
	C144.193,12.238,100.389,56.042,90.4,112H64c-26.499,0.026-47.974,21.501-48,48v272c0.026,26.499,21.501,47.974,48,48h360
	c4.418,0,8-3.582,8-8v-72.8c18.611-3.827,31.976-20.199,32-39.2v-96C463.976,244.999,450.611,228.627,432,224.8z M448,264
	c-0.01,1.48-0.16,2.956-0.448,4.408c-0.08,0.448-0.208,0.872-0.32,1.312c-0.236,0.978-0.535,1.941-0.896,2.88
	c-0.176,0.456-0.352,0.904-0.552,1.336c-0.432,0.935-0.923,1.841-1.472,2.712c-0.208,0.328-0.392,0.68-0.608,1
	c-0.795,1.14-1.687,2.211-2.664,3.2c-0.168,0.168-0.368,0.312-0.544,0.48c-0.842,0.796-1.737,1.534-2.68,2.208
	c-0.376,0.264-0.8,0.504-1.16,0.744c-0.829,0.52-1.689,0.987-2.576,1.4c-0.432,0.2-0.864,0.408-1.304,0.584
	c-0.248,0.096-0.52,0.144-0.8,0.24v-45.136C441.567,244.763,447.984,253.826,448,264L448,264z M416,128v64h-68.16
	c0.192-0.424,0.32-0.872,0.512-1.296c1.704-3.856,3.264-7.768,4.6-11.752c0.168-0.504,0.304-1.024,0.464-1.528
	c1.208-3.744,2.232-7.528,3.104-11.36c0.168-0.728,0.36-1.448,0.52-2.184c0.864-4.088,1.52-8.208,2-12.36
	c0.104-0.872,0.176-1.736,0.264-2.608C359.72,144.624,360,140.32,360,136c0-2.592-0.088-5.224-0.28-8L416,128z M224,16
	c66.093,0.436,119.564,53.907,120,120c-0.014,4.575-0.297,9.146-0.848,13.688c0,0.4-0.064,0.8-0.12,1.216
	c-0.565,4.307-1.366,8.581-2.4,12.8c-0.144,0.592-0.264,1.176-0.416,1.768c-1.06,4.112-2.337,8.166-3.824,12.144
	c-0.24,0.648-0.48,1.296-0.736,1.944c-1.55,3.942-3.304,7.801-5.256,11.56c-0.152,0.296-0.32,0.584-0.472,0.88h-18.4
	c10.734-16.707,16.451-36.142,16.472-56h-16c-0.012,20.454-7.168,40.261-20.232,56h-25.864c10.382-15.471,7.214-36.312-7.296-48
	c15.435-12.413,17.886-34.988,5.473-50.423c-4.195-5.216-9.765-9.154-16.081-11.369V64h-16v16h-16V64h-16v16h-16
	c-4.418,0-8,3.582-8,8v104h-57.952c-0.152-0.296-0.32-0.584-0.472-0.88c-1.95-3.756-3.702-7.612-5.248-11.552
	c-0.256-0.64-0.488-1.288-0.728-1.928c-1.494-3.979-2.773-8.036-3.832-12.152c-0.152-0.592-0.272-1.176-0.416-1.768
	c-1.035-4.219-1.836-8.492-2.4-12.8c-0.056-0.4-0.08-0.8-0.12-1.2c-0.546-4.553-0.824-9.134-0.832-13.72
	C104.436,69.907,157.907,16.436,224,16L224,16z M236,96c11.046,0,20,8.954,20,20s-8.954,20-20,20h-44V96H236z M236,152
	c11.046,0,20,8.954,20,20s-8.954,20-20,20h-44v-40H236z M64,128h24.28c-0.192,2.776-0.28,5.408-0.28,8
	c0,4.32,0.28,8.624,0.696,12.912c0.088,0.872,0.16,1.736,0.264,2.608c0.48,4.152,1.136,8.272,2,12.36
	c0.16,0.736,0.352,1.456,0.52,2.184c0.872,3.832,1.896,7.616,3.104,11.36c0.16,0.504,0.296,1.024,0.464,1.528
	c1.336,4,2.896,7.896,4.6,11.752c0.192,0.424,0.32,0.872,0.512,1.296H64c-17.673,0-32-14.327-32-32S46.327,128,64,128L64,128z
	 M416,464H64c-17.673,0-32-14.327-32-32V195.68c8.773,7.927,20.176,12.317,32,12.32h352v80h-61.992
	c-30.745-0.334-56.306,23.589-58.008,54.288c-0.946,30.913,23.348,56.74,54.262,57.686c0.579,0.018,1.159,0.026,1.738,0.026h64V464z
	 M448,360c0,13.255-10.745,24-24,24h-72c-22.091,0.011-40.009-17.889-40.019-39.981c0-0.42,0.006-0.84,0.019-1.259
	c1.391-22.072,19.896-39.146,42.008-38.76H424c2.49-0.018,4.973-0.269,7.416-0.752c0.8-0.144,1.504-0.376,2.256-0.568
	c1.61-0.394,3.194-0.885,4.744-1.472c0.8-0.32,1.6-0.664,2.4-1.032c1.431-0.67,2.82-1.426,4.16-2.264
	c0.696-0.432,1.4-0.8,2.064-1.312c0.312-0.224,0.672-0.392,0.976-0.616L448,360z"/>
<path d="M224,48V32c-57.41,0.066-103.934,46.59-104,104h16C136.057,87.423,175.423,48.057,224,48z"/>
<path d="M56,80h16c0-17.673,14.327-32,32-32V32C86.327,32,72,17.673,72,0H56c0,17.673-14.327,32-32,32v16C41.673,48,56,62.327,56,80
	z M64,26.4c3.546,5.388,8.135,10.012,13.496,13.6c-5.361,3.588-9.95,8.212-13.496,13.6c-3.546-5.388-8.135-10.012-13.496-13.6
	C55.865,36.412,60.454,31.788,64,26.4z"/>
<g>
</g>
<g>
</g>
<g>
</g>
<g>
</g>
<g>
</g>
<g>
</g>
<g>
</g>
<g>
</g>
<g>
</g>
<g>
</g>
<g>
</g>
<g>
</g>
<g>
</g>
<g>
</g>
<g>
</g>
</svg>